<mxfile host="app.diagrams.net" modified="2021-12-08T18:17:47.737Z" agent="5.0 (Windows NT 10.0; Win64; x64) AppleWebKit/537.36 (KHTML, like Gecko) Chrome/96.0.4664.45 Safari/537.36" etag="_qgvnxy0g1hODl7sGseU" version="15.9.4" type="github">
  <diagram id="WSAyNdFd_5rQgRiO5rZP" name="Page-1">
    <mxGraphModel dx="2048" dy="681" grid="1" gridSize="10" guides="1" tooltips="1" connect="1" arrows="1" fold="1" page="1" pageScale="1" pageWidth="827" pageHeight="1169" math="0" shadow="0">
      <root>
        <mxCell id="0" />
        <mxCell id="1" parent="0" />
        <mxCell id="mTuiUfd1mNE5wVfh7Ewz-1" value="CREAMOS EL RECORRIDO DEL LABERINTO DEFINIENDO ENTRADA, CAMINO, MUROS Y SALIDA" style="ellipse;whiteSpace=wrap;html=1;fillColor=#d5e8d4;strokeColor=#82b366;" vertex="1" parent="1">
          <mxGeometry x="80" y="240" width="150" height="120" as="geometry" />
        </mxCell>
        <mxCell id="mTuiUfd1mNE5wVfh7Ewz-2" value="" style="endArrow=classic;html=1;rounded=0;" edge="1" parent="1">
          <mxGeometry width="50" height="50" relative="1" as="geometry">
            <mxPoint x="230" y="300" as="sourcePoint" />
            <mxPoint x="280" y="299.5" as="targetPoint" />
          </mxGeometry>
        </mxCell>
        <mxCell id="mTuiUfd1mNE5wVfh7Ewz-3" value="NOS SITUAMOS EN LA ENTRADA DEL LABERINTO" style="rounded=1;whiteSpace=wrap;html=1;fillColor=#dae8fc;strokeColor=#6c8ebf;" vertex="1" parent="1">
          <mxGeometry x="280" y="270" width="120" height="60" as="geometry" />
        </mxCell>
        <mxCell id="mTuiUfd1mNE5wVfh7Ewz-4" value="" style="endArrow=classic;html=1;rounded=0;" edge="1" parent="1" target="mTuiUfd1mNE5wVfh7Ewz-5">
          <mxGeometry width="50" height="50" relative="1" as="geometry">
            <mxPoint x="400" y="300" as="sourcePoint" />
            <mxPoint x="470" y="300" as="targetPoint" />
          </mxGeometry>
        </mxCell>
        <mxCell id="mTuiUfd1mNE5wVfh7Ewz-5" value="¿ESTAS EN LA ENTRADA O EN EL CAMINO?" style="shape=hexagon;perimeter=hexagonPerimeter2;whiteSpace=wrap;html=1;fixedSize=1;fillColor=#fff2cc;strokeColor=#d6b656;" vertex="1" parent="1">
          <mxGeometry x="460" y="260" width="120" height="80" as="geometry" />
        </mxCell>
        <mxCell id="mTuiUfd1mNE5wVfh7Ewz-6" value="" style="endArrow=classic;html=1;rounded=0;entryX=0;entryY=0.5;entryDx=0;entryDy=0;" edge="1" parent="1" target="mTuiUfd1mNE5wVfh7Ewz-8">
          <mxGeometry width="50" height="50" relative="1" as="geometry">
            <mxPoint x="580" y="300" as="sourcePoint" />
            <mxPoint x="660" y="300" as="targetPoint" />
          </mxGeometry>
        </mxCell>
        <mxCell id="mTuiUfd1mNE5wVfh7Ewz-7" value="SI" style="text;html=1;align=center;verticalAlign=middle;resizable=0;points=[];autosize=1;strokeColor=none;fillColor=none;" vertex="1" parent="1">
          <mxGeometry x="600" y="280" width="30" height="20" as="geometry" />
        </mxCell>
        <mxCell id="mTuiUfd1mNE5wVfh7Ewz-8" value="DECIDE SI TE MUEVES ARRIBA, ABAJO, DERECHA O IZQUIERDA (CUALQUIER OTRA ELECCION NO HARÁ NADA)" style="ellipse;whiteSpace=wrap;html=1;aspect=fixed;fillColor=#ffe6cc;strokeColor=#d79b00;" vertex="1" parent="1">
          <mxGeometry x="660" y="217.5" width="165" height="165" as="geometry" />
        </mxCell>
        <mxCell id="mTuiUfd1mNE5wVfh7Ewz-10" value="" style="endArrow=classic;html=1;rounded=0;exitX=1;exitY=0.5;exitDx=0;exitDy=0;entryX=0.5;entryY=0;entryDx=0;entryDy=0;startArrow=none;" edge="1" parent="1" source="mTuiUfd1mNE5wVfh7Ewz-11" target="mTuiUfd1mNE5wVfh7Ewz-5">
          <mxGeometry width="50" height="50" relative="1" as="geometry">
            <mxPoint x="830" y="300" as="sourcePoint" />
            <mxPoint x="870" y="250" as="targetPoint" />
            <Array as="points">
              <mxPoint x="520" y="140" />
            </Array>
          </mxGeometry>
        </mxCell>
        <mxCell id="mTuiUfd1mNE5wVfh7Ewz-11" value="TE ENCUENTRAS EN LA POSICION &lt;br&gt;(X, Y). CONTINUA MOVIENDOTE" style="rounded=0;whiteSpace=wrap;html=1;fillColor=#e1d5e7;strokeColor=#9673a6;" vertex="1" parent="1">
          <mxGeometry x="671.25" y="100" width="142.5" height="80" as="geometry" />
        </mxCell>
        <mxCell id="mTuiUfd1mNE5wVfh7Ewz-12" value="" style="endArrow=none;html=1;rounded=0;exitX=1;exitY=0.5;exitDx=0;exitDy=0;entryX=1;entryY=0.5;entryDx=0;entryDy=0;" edge="1" parent="1" source="mTuiUfd1mNE5wVfh7Ewz-8" target="mTuiUfd1mNE5wVfh7Ewz-11">
          <mxGeometry width="50" height="50" relative="1" as="geometry">
            <mxPoint x="824.9999999999977" y="300" as="sourcePoint" />
            <mxPoint x="520" y="260" as="targetPoint" />
            <Array as="points">
              <mxPoint x="910" y="300" />
              <mxPoint x="910" y="140" />
            </Array>
          </mxGeometry>
        </mxCell>
        <mxCell id="mTuiUfd1mNE5wVfh7Ewz-13" value="" style="endArrow=classic;html=1;rounded=0;" edge="1" parent="1">
          <mxGeometry width="50" height="50" relative="1" as="geometry">
            <mxPoint x="580" y="300" as="sourcePoint" />
            <mxPoint x="660" y="440" as="targetPoint" />
            <Array as="points">
              <mxPoint x="580" y="440" />
            </Array>
          </mxGeometry>
        </mxCell>
        <mxCell id="mTuiUfd1mNE5wVfh7Ewz-14" value="NO" style="text;html=1;align=center;verticalAlign=middle;resizable=0;points=[];autosize=1;strokeColor=none;fillColor=none;" vertex="1" parent="1">
          <mxGeometry x="600" y="420" width="30" height="20" as="geometry" />
        </mxCell>
        <mxCell id="mTuiUfd1mNE5wVfh7Ewz-17" value="SE INICIA EL PROGRAMA" style="ellipse;whiteSpace=wrap;html=1;fillColor=#f5f5f5;gradientColor=#b3b3b3;strokeColor=#666666;" vertex="1" parent="1">
          <mxGeometry x="-70" y="260" width="110" height="80" as="geometry" />
        </mxCell>
        <mxCell id="mTuiUfd1mNE5wVfh7Ewz-18" value="" style="endArrow=classic;html=1;rounded=0;entryX=0;entryY=0.5;entryDx=0;entryDy=0;exitX=1;exitY=0.5;exitDx=0;exitDy=0;" edge="1" parent="1" source="mTuiUfd1mNE5wVfh7Ewz-17" target="mTuiUfd1mNE5wVfh7Ewz-1">
          <mxGeometry width="50" height="50" relative="1" as="geometry">
            <mxPoint x="10" y="300" as="sourcePoint" />
            <mxPoint x="60" y="250" as="targetPoint" />
          </mxGeometry>
        </mxCell>
        <mxCell id="mTuiUfd1mNE5wVfh7Ewz-19" value="¿ESTAS EN&amp;nbsp; UN MURO?" style="shape=hexagon;perimeter=hexagonPerimeter2;whiteSpace=wrap;html=1;fixedSize=1;fillColor=#fff2cc;strokeColor=#d6b656;" vertex="1" parent="1">
          <mxGeometry x="660" y="400" width="120" height="80" as="geometry" />
        </mxCell>
        <mxCell id="mTuiUfd1mNE5wVfh7Ewz-20" value="" style="endArrow=classic;html=1;rounded=0;" edge="1" parent="1">
          <mxGeometry width="50" height="50" relative="1" as="geometry">
            <mxPoint x="780" y="440" as="sourcePoint" />
            <mxPoint x="840" y="440" as="targetPoint" />
          </mxGeometry>
        </mxCell>
        <mxCell id="mTuiUfd1mNE5wVfh7Ewz-21" value="ESTAS EN LA &lt;br&gt;SALIDA" style="shape=hexagon;perimeter=hexagonPerimeter2;whiteSpace=wrap;html=1;fixedSize=1;fillColor=#fff2cc;strokeColor=#d6b656;" vertex="1" parent="1">
          <mxGeometry x="840" y="490" width="120" height="80" as="geometry" />
        </mxCell>
        <mxCell id="mTuiUfd1mNE5wVfh7Ewz-22" value="" style="endArrow=classic;html=1;rounded=0;entryX=0;entryY=0.5;entryDx=0;entryDy=0;" edge="1" parent="1" target="mTuiUfd1mNE5wVfh7Ewz-21">
          <mxGeometry width="50" height="50" relative="1" as="geometry">
            <mxPoint x="780" y="440" as="sourcePoint" />
            <mxPoint x="830" y="530" as="targetPoint" />
            <Array as="points">
              <mxPoint x="780" y="530" />
            </Array>
          </mxGeometry>
        </mxCell>
        <mxCell id="mTuiUfd1mNE5wVfh7Ewz-23" value="NO" style="text;html=1;align=center;verticalAlign=middle;resizable=0;points=[];autosize=1;strokeColor=none;fillColor=none;" vertex="1" parent="1">
          <mxGeometry x="785" y="510" width="30" height="20" as="geometry" />
        </mxCell>
        <mxCell id="mTuiUfd1mNE5wVfh7Ewz-24" value="SI" style="text;html=1;align=center;verticalAlign=middle;resizable=0;points=[];autosize=1;strokeColor=none;fillColor=none;" vertex="1" parent="1">
          <mxGeometry x="785" y="420" width="30" height="20" as="geometry" />
        </mxCell>
        <mxCell id="mTuiUfd1mNE5wVfh7Ewz-26" value="¡¡¡ENHORABUENA, HAS CONSEGUIDO SALIR DEL LABERINTO!!!" style="ellipse;shape=cloud;whiteSpace=wrap;html=1;fillColor=#fff2cc;gradientColor=#ffd966;strokeColor=#d6b656;" vertex="1" parent="1">
          <mxGeometry x="990" y="457.5" width="180" height="145" as="geometry" />
        </mxCell>
        <mxCell id="mTuiUfd1mNE5wVfh7Ewz-28" value="" style="endArrow=classic;html=1;rounded=0;entryX=0.087;entryY=0.496;entryDx=0;entryDy=0;entryPerimeter=0;" edge="1" parent="1" target="mTuiUfd1mNE5wVfh7Ewz-26">
          <mxGeometry width="50" height="50" relative="1" as="geometry">
            <mxPoint x="960" y="530" as="sourcePoint" />
            <mxPoint x="1030" y="530" as="targetPoint" />
          </mxGeometry>
        </mxCell>
        <mxCell id="mTuiUfd1mNE5wVfh7Ewz-29" value="SE REINICIA EL PROGRAMA" style="ellipse;whiteSpace=wrap;html=1;aspect=fixed;fillColor=#f8cecc;strokeColor=#b85450;" vertex="1" parent="1">
          <mxGeometry x="840" y="395" width="90" height="90" as="geometry" />
        </mxCell>
      </root>
    </mxGraphModel>
  </diagram>
</mxfile>
